<?xml version="1.0" encoding="UTF-8"?>
<svg id="logosandtypes_com" data-name="logosandtypes com" xmlns="http://www.w3.org/2000/svg" viewBox="0 0 150 150">
  <defs>
    <style>
      .cls-1 {
        fill: #00b2a9;
      }

      .cls-2 {
        fill: none;
      }
    </style>
  </defs>
  <path class="cls-2" d="M0,0H150V150H0V0Z"/>
  <g>
    <path class="cls-1" d="M.67,69.14s56.39,.13,84.57-.47c2.13-.05,4.26-.1,6.37-.53,9.79-2.18,9.55-20.01-.48-21.41-4.76-.89-14.52-.6-14.52-.6l-48.67,.1v-5.95c2.73-.58,32.36-.33,35.96-.38v-4.11H28v-6.04l35.79-.12v-4.42H27.95v-7.13l71.48,.05c14.85,.17,31.91,8.73,34.99,24.41,3.33,14.33-1.56,31.54-15.59,38.2,12.52,7.51,15.34,18.35,16.57,32.1,.51,5.83,.19,11.76,1.93,17.45,.44,1.44,1.37,4.31,1.37,4.31l-36.71,.09s-1.45-8.84-2.04-13.38c-.52-4.03-.67-8.1-1.27-12.12-1.07-8.43-5.92-14.85-14.93-14.8-5.87-.13-19.24,0-19.24,0v40.56H27.9l-.18-4.84,7.17-5.11h-6.93v-5.8h10.86l5.03-4.33h-15.87v-6.12h19.92l4.55-4.1H27.97v-6.11h29.22l3.93-4.27-60.45-.19v-5.42l66.09-.12,3.06-3.74-69.15,.06v-6.51H75.64l3.1-3.8H.67v-5.42H.67Z"/>
    <polygon class="cls-1" points="64.18 50.44 64.18 55.98 27.97 55.98 27.97 50.66 64.18 50.44"/>
    <polygon class="cls-1" points="64.2 60.32 64.2 65.2 27.96 65.2 27.96 60.43 64.2 60.32"/>
  </g>
</svg>